<svg xmlns="http://www.w3.org/2000/svg" xmlns:xlink="http://www.w3.org/1999/xlink" width="1080" zoomAndPan="magnify" viewBox="0 0 810 1439.999935" height="1920" preserveAspectRatio="xMidYMid meet" version="1.0"><defs><g/></defs><rect x="-81" width="972" fill="#ffffff" y="-143.999994" height="1727.999922" fill-opacity="1"/><rect x="-81" width="972" fill="#000000" y="-143.999994" height="1727.999922" fill-opacity="1"/><g fill="#9b0000" fill-opacity="1"><g transform="translate(18.227177, 174.519809)"><g><path d="M 9.734375 0 L 62.25 0 L 62.25 -28.984375 L 73.53125 -28.984375 C 93.96875 -28.984375 110.3125 -33.84375 122.171875 -43.578125 C 134.046875 -53.109375 139.875 -66.34375 139.875 -83.078125 C 139.875 -99.40625 134.046875 -112.453125 122.171875 -121.984375 C 110.3125 -131.515625 93.96875 -136.1875 73.53125 -136.1875 L 9.734375 -136.1875 Z M 62.25 -67.703125 L 62.25 -95.515625 L 71.984375 -95.515625 C 76.453125 -95.515625 80.15625 -94.15625 82.6875 -91.625 C 85.21875 -88.90625 86.375 -85.40625 86.375 -81.328125 C 86.375 -77.234375 85.21875 -73.921875 82.6875 -71.40625 C 80.15625 -68.875 76.453125 -67.703125 71.984375 -67.703125 Z M 62.25 -67.703125 "/></g></g></g><g fill="#9b0000" fill-opacity="1"><g transform="translate(155.578918, 174.519809)"><g><path d="M 9.734375 0 L 132.09375 0 L 132.09375 -39.875 L 60.890625 -39.875 L 60.890625 -50.96875 L 116.34375 -50.96875 L 116.34375 -86.375 L 60.890625 -86.375 L 60.890625 -96.296875 L 130.34375 -96.296875 L 130.34375 -136.1875 L 9.734375 -136.1875 Z M 9.734375 0 "/></g></g></g><g fill="#9b0000" fill-opacity="1"><g transform="translate(285.148651, 174.519809)"><g><path d="M 9.734375 -0.1875 L 77.046875 -0.1875 C 100.96875 -0.1875 120.03125 -6.421875 134.046875 -18.875 C 148.25 -31.328125 155.25 -47.859375 155.25 -68.671875 C 155.25 -89.296875 148.25 -105.828125 134.046875 -118.09375 C 120.03125 -130.34375 100.96875 -136.375 77.046875 -136.375 L 9.734375 -136.375 Z M 62.25 -43 L 62.25 -93.578125 L 74.703125 -93.578125 C 83.078125 -93.578125 89.6875 -91.4375 94.546875 -86.765625 C 99.40625 -82.296875 101.75 -76.265625 101.75 -68.484375 C 101.75 -60.703125 99.40625 -54.671875 94.546875 -50 C 89.6875 -45.328125 83.078125 -43 74.703125 -43 Z M 62.25 -43 "/></g></g></g><g fill="#9b0000" fill-opacity="1"><g transform="translate(437.869811, 174.519809)"><g><path d="M 9.734375 0 L 62.25 0 L 62.25 -136.1875 L 9.734375 -136.1875 Z M 9.734375 0 "/></g></g></g><g fill="#9b0000" fill-opacity="1"><g transform="translate(497.596246, 174.519809)"><g><path d="M 78.40625 2.921875 C 119.640625 2.921875 147.265625 -20.03125 147.265625 -59.921875 L 147.265625 -136.1875 L 95.328125 -136.1875 L 95.328125 -58.5625 C 95.328125 -46.5 90.46875 -38.515625 78.40625 -38.515625 C 66.921875 -38.515625 62.25 -47.078125 62.25 -58.5625 L 62.25 -136.1875 L 9.734375 -136.1875 L 9.734375 -59.921875 C 9.734375 -20.8125 36.765625 2.921875 78.40625 2.921875 Z M 78.40625 2.921875 "/></g></g></g><g fill="#9b0000" fill-opacity="1"><g transform="translate(642.340923, 174.519809)"><g><path d="M 50.78125 -36.1875 L 96.5 -36.1875 C 96.5 -79.765625 139.6875 -52.53125 139.6875 -103.5 C 139.6875 -117.703125 133.84375 -129.375 122.765625 -138.328125 C 111.09375 -147.265625 96.109375 -151.75 77.234375 -151.75 C 56.421875 -151.75 34.046875 -145.328125 9.734375 -132.296875 L 29.953125 -82.09375 C 46.6875 -92.40625 59.921875 -97.46875 69.453125 -97.46875 C 75.09375 -97.46875 78.203125 -95.328125 78.203125 -90.859375 C 78.203125 -86.1875 72.171875 -82.875 68.09375 -80.734375 C 48.640625 -70.625 50.78125 -54.859375 50.78125 -36.1875 Z M 70.8125 -28.015625 C 56.421875 -28.015625 46.109375 -20.421875 46.109375 -10.5 C 46.109375 -0.578125 56.421875 7 70.8125 7 L 76.84375 7 C 91.25 7 101.546875 -0.578125 101.546875 -10.5 C 101.546875 -20.421875 91.25 -28.015625 76.84375 -28.015625 Z M 70.8125 -28.015625 "/></g></g></g><g fill="#9b0000" fill-opacity="1"><g transform="translate(18.227177, 337.269795)"><g><path d="M 9.734375 0 L 62.25 0 L 62.25 -28.984375 L 73.53125 -28.984375 C 93.96875 -28.984375 110.3125 -33.84375 122.171875 -43.578125 C 134.046875 -53.109375 139.875 -66.34375 139.875 -83.078125 C 139.875 -99.40625 134.046875 -112.453125 122.171875 -121.984375 C 110.3125 -131.515625 93.96875 -136.1875 73.53125 -136.1875 L 9.734375 -136.1875 Z M 62.25 -67.703125 L 62.25 -95.515625 L 71.984375 -95.515625 C 76.453125 -95.515625 80.15625 -94.15625 82.6875 -91.625 C 85.21875 -88.90625 86.375 -85.40625 86.375 -81.328125 C 86.375 -77.234375 85.21875 -73.921875 82.6875 -71.40625 C 80.15625 -68.875 76.453125 -67.703125 71.984375 -67.703125 Z M 62.25 -67.703125 "/></g></g></g><g fill="#9b0000" fill-opacity="1"><g transform="translate(155.578918, 337.269795)"><g><path d="M 9.734375 0 L 132.09375 0 L 132.09375 -39.875 L 60.890625 -39.875 L 60.890625 -50.96875 L 116.34375 -50.96875 L 116.34375 -86.375 L 60.890625 -86.375 L 60.890625 -96.296875 L 130.34375 -96.296875 L 130.34375 -136.1875 L 9.734375 -136.1875 Z M 9.734375 0 "/></g></g></g><g fill="#9b0000" fill-opacity="1"><g transform="translate(285.148651, 337.269795)"><g><path d="M 9.734375 -0.1875 L 77.046875 -0.1875 C 100.96875 -0.1875 120.03125 -6.421875 134.046875 -18.875 C 148.25 -31.328125 155.25 -47.859375 155.25 -68.671875 C 155.25 -89.296875 148.25 -105.828125 134.046875 -118.09375 C 120.03125 -130.34375 100.96875 -136.375 77.046875 -136.375 L 9.734375 -136.375 Z M 62.25 -43 L 62.25 -93.578125 L 74.703125 -93.578125 C 83.078125 -93.578125 89.6875 -91.4375 94.546875 -86.765625 C 99.40625 -82.296875 101.75 -76.265625 101.75 -68.484375 C 101.75 -60.703125 99.40625 -54.671875 94.546875 -50 C 89.6875 -45.328125 83.078125 -43 74.703125 -43 Z M 62.25 -43 "/></g></g></g><g fill="#9b0000" fill-opacity="1"><g transform="translate(437.869811, 337.269795)"><g><path d="M 9.734375 0 L 62.25 0 L 62.25 -136.1875 L 9.734375 -136.1875 Z M 9.734375 0 "/></g></g></g><g fill="#9b0000" fill-opacity="1"><g transform="translate(497.596246, 337.269795)"><g><path d="M 78.40625 2.921875 C 119.640625 2.921875 147.265625 -20.03125 147.265625 -59.921875 L 147.265625 -136.1875 L 95.328125 -136.1875 L 95.328125 -58.5625 C 95.328125 -46.5 90.46875 -38.515625 78.40625 -38.515625 C 66.921875 -38.515625 62.25 -47.078125 62.25 -58.5625 L 62.25 -136.1875 L 9.734375 -136.1875 L 9.734375 -59.921875 C 9.734375 -20.8125 36.765625 2.921875 78.40625 2.921875 Z M 78.40625 2.921875 "/></g></g></g><g fill="#9b0000" fill-opacity="1"><g transform="translate(642.340923, 337.269795)"><g><path d="M 50.78125 -36.1875 L 96.5 -36.1875 C 96.5 -79.765625 139.6875 -52.53125 139.6875 -103.5 C 139.6875 -117.703125 133.84375 -129.375 122.765625 -138.328125 C 111.09375 -147.265625 96.109375 -151.75 77.234375 -151.75 C 56.421875 -151.75 34.046875 -145.328125 9.734375 -132.296875 L 29.953125 -82.09375 C 46.6875 -92.40625 59.921875 -97.46875 69.453125 -97.46875 C 75.09375 -97.46875 78.203125 -95.328125 78.203125 -90.859375 C 78.203125 -86.1875 72.171875 -82.875 68.09375 -80.734375 C 48.640625 -70.625 50.78125 -54.859375 50.78125 -36.1875 Z M 70.8125 -28.015625 C 56.421875 -28.015625 46.109375 -20.421875 46.109375 -10.5 C 46.109375 -0.578125 56.421875 7 70.8125 7 L 76.84375 7 C 91.25 7 101.546875 -0.578125 101.546875 -10.5 C 101.546875 -20.421875 91.25 -28.015625 76.84375 -28.015625 Z M 70.8125 -28.015625 "/></g></g></g><g fill="#9b0000" fill-opacity="1"><g transform="translate(18.227177, 500.01978)"><g><path d="M 9.734375 0 L 62.25 0 L 62.25 -28.984375 L 73.53125 -28.984375 C 93.96875 -28.984375 110.3125 -33.84375 122.171875 -43.578125 C 134.046875 -53.109375 139.875 -66.34375 139.875 -83.078125 C 139.875 -99.40625 134.046875 -112.453125 122.171875 -121.984375 C 110.3125 -131.515625 93.96875 -136.1875 73.53125 -136.1875 L 9.734375 -136.1875 Z M 62.25 -67.703125 L 62.25 -95.515625 L 71.984375 -95.515625 C 76.453125 -95.515625 80.15625 -94.15625 82.6875 -91.625 C 85.21875 -88.90625 86.375 -85.40625 86.375 -81.328125 C 86.375 -77.234375 85.21875 -73.921875 82.6875 -71.40625 C 80.15625 -68.875 76.453125 -67.703125 71.984375 -67.703125 Z M 62.25 -67.703125 "/></g></g></g><g fill="#9b0000" fill-opacity="1"><g transform="translate(155.578918, 500.01978)"><g><path d="M 9.734375 0 L 132.09375 0 L 132.09375 -39.875 L 60.890625 -39.875 L 60.890625 -50.96875 L 116.34375 -50.96875 L 116.34375 -86.375 L 60.890625 -86.375 L 60.890625 -96.296875 L 130.34375 -96.296875 L 130.34375 -136.1875 L 9.734375 -136.1875 Z M 9.734375 0 "/></g></g></g><g fill="#9b0000" fill-opacity="1"><g transform="translate(285.148651, 500.01978)"><g><path d="M 9.734375 -0.1875 L 77.046875 -0.1875 C 100.96875 -0.1875 120.03125 -6.421875 134.046875 -18.875 C 148.25 -31.328125 155.25 -47.859375 155.25 -68.671875 C 155.25 -89.296875 148.25 -105.828125 134.046875 -118.09375 C 120.03125 -130.34375 100.96875 -136.375 77.046875 -136.375 L 9.734375 -136.375 Z M 62.25 -43 L 62.25 -93.578125 L 74.703125 -93.578125 C 83.078125 -93.578125 89.6875 -91.4375 94.546875 -86.765625 C 99.40625 -82.296875 101.75 -76.265625 101.75 -68.484375 C 101.75 -60.703125 99.40625 -54.671875 94.546875 -50 C 89.6875 -45.328125 83.078125 -43 74.703125 -43 Z M 62.25 -43 "/></g></g></g><g fill="#9b0000" fill-opacity="1"><g transform="translate(437.869811, 500.01978)"><g><path d="M 9.734375 0 L 62.25 0 L 62.25 -136.1875 L 9.734375 -136.1875 Z M 9.734375 0 "/></g></g></g><g fill="#9b0000" fill-opacity="1"><g transform="translate(497.596246, 500.01978)"><g><path d="M 78.40625 2.921875 C 119.640625 2.921875 147.265625 -20.03125 147.265625 -59.921875 L 147.265625 -136.1875 L 95.328125 -136.1875 L 95.328125 -58.5625 C 95.328125 -46.5 90.46875 -38.515625 78.40625 -38.515625 C 66.921875 -38.515625 62.25 -47.078125 62.25 -58.5625 L 62.25 -136.1875 L 9.734375 -136.1875 L 9.734375 -59.921875 C 9.734375 -20.8125 36.765625 2.921875 78.40625 2.921875 Z M 78.40625 2.921875 "/></g></g></g><g fill="#9b0000" fill-opacity="1"><g transform="translate(642.340923, 500.01978)"><g><path d="M 50.78125 -36.1875 L 96.5 -36.1875 C 96.5 -79.765625 139.6875 -52.53125 139.6875 -103.5 C 139.6875 -117.703125 133.84375 -129.375 122.765625 -138.328125 C 111.09375 -147.265625 96.109375 -151.75 77.234375 -151.75 C 56.421875 -151.75 34.046875 -145.328125 9.734375 -132.296875 L 29.953125 -82.09375 C 46.6875 -92.40625 59.921875 -97.46875 69.453125 -97.46875 C 75.09375 -97.46875 78.203125 -95.328125 78.203125 -90.859375 C 78.203125 -86.1875 72.171875 -82.875 68.09375 -80.734375 C 48.640625 -70.625 50.78125 -54.859375 50.78125 -36.1875 Z M 70.8125 -28.015625 C 56.421875 -28.015625 46.109375 -20.421875 46.109375 -10.5 C 46.109375 -0.578125 56.421875 7 70.8125 7 L 76.84375 7 C 91.25 7 101.546875 -0.578125 101.546875 -10.5 C 101.546875 -20.421875 91.25 -28.015625 76.84375 -28.015625 Z M 70.8125 -28.015625 "/></g></g></g><g fill="#9b0000" fill-opacity="1"><g transform="translate(18.227177, 662.769766)"><g><path d="M 9.734375 0 L 62.25 0 L 62.25 -28.984375 L 73.53125 -28.984375 C 93.96875 -28.984375 110.3125 -33.84375 122.171875 -43.578125 C 134.046875 -53.109375 139.875 -66.34375 139.875 -83.078125 C 139.875 -99.40625 134.046875 -112.453125 122.171875 -121.984375 C 110.3125 -131.515625 93.96875 -136.1875 73.53125 -136.1875 L 9.734375 -136.1875 Z M 62.25 -67.703125 L 62.25 -95.515625 L 71.984375 -95.515625 C 76.453125 -95.515625 80.15625 -94.15625 82.6875 -91.625 C 85.21875 -88.90625 86.375 -85.40625 86.375 -81.328125 C 86.375 -77.234375 85.21875 -73.921875 82.6875 -71.40625 C 80.15625 -68.875 76.453125 -67.703125 71.984375 -67.703125 Z M 62.25 -67.703125 "/></g></g></g><g fill="#9b0000" fill-opacity="1"><g transform="translate(155.578918, 662.769766)"><g><path d="M 9.734375 0 L 132.09375 0 L 132.09375 -39.875 L 60.890625 -39.875 L 60.890625 -50.96875 L 116.34375 -50.96875 L 116.34375 -86.375 L 60.890625 -86.375 L 60.890625 -96.296875 L 130.34375 -96.296875 L 130.34375 -136.1875 L 9.734375 -136.1875 Z M 9.734375 0 "/></g></g></g><g fill="#9b0000" fill-opacity="1"><g transform="translate(285.148651, 662.769766)"><g><path d="M 9.734375 -0.1875 L 77.046875 -0.1875 C 100.96875 -0.1875 120.03125 -6.421875 134.046875 -18.875 C 148.25 -31.328125 155.25 -47.859375 155.25 -68.671875 C 155.25 -89.296875 148.25 -105.828125 134.046875 -118.09375 C 120.03125 -130.34375 100.96875 -136.375 77.046875 -136.375 L 9.734375 -136.375 Z M 62.25 -43 L 62.25 -93.578125 L 74.703125 -93.578125 C 83.078125 -93.578125 89.6875 -91.4375 94.546875 -86.765625 C 99.40625 -82.296875 101.75 -76.265625 101.75 -68.484375 C 101.75 -60.703125 99.40625 -54.671875 94.546875 -50 C 89.6875 -45.328125 83.078125 -43 74.703125 -43 Z M 62.25 -43 "/></g></g></g><g fill="#9b0000" fill-opacity="1"><g transform="translate(437.869811, 662.769766)"><g><path d="M 9.734375 0 L 62.25 0 L 62.25 -136.1875 L 9.734375 -136.1875 Z M 9.734375 0 "/></g></g></g><g fill="#9b0000" fill-opacity="1"><g transform="translate(497.596246, 662.769766)"><g><path d="M 78.40625 2.921875 C 119.640625 2.921875 147.265625 -20.03125 147.265625 -59.921875 L 147.265625 -136.1875 L 95.328125 -136.1875 L 95.328125 -58.5625 C 95.328125 -46.5 90.46875 -38.515625 78.40625 -38.515625 C 66.921875 -38.515625 62.25 -47.078125 62.25 -58.5625 L 62.25 -136.1875 L 9.734375 -136.1875 L 9.734375 -59.921875 C 9.734375 -20.8125 36.765625 2.921875 78.40625 2.921875 Z M 78.40625 2.921875 "/></g></g></g><g fill="#9b0000" fill-opacity="1"><g transform="translate(642.340923, 662.769766)"><g><path d="M 50.78125 -36.1875 L 96.5 -36.1875 C 96.5 -79.765625 139.6875 -52.53125 139.6875 -103.5 C 139.6875 -117.703125 133.84375 -129.375 122.765625 -138.328125 C 111.09375 -147.265625 96.109375 -151.75 77.234375 -151.75 C 56.421875 -151.75 34.046875 -145.328125 9.734375 -132.296875 L 29.953125 -82.09375 C 46.6875 -92.40625 59.921875 -97.46875 69.453125 -97.46875 C 75.09375 -97.46875 78.203125 -95.328125 78.203125 -90.859375 C 78.203125 -86.1875 72.171875 -82.875 68.09375 -80.734375 C 48.640625 -70.625 50.78125 -54.859375 50.78125 -36.1875 Z M 70.8125 -28.015625 C 56.421875 -28.015625 46.109375 -20.421875 46.109375 -10.5 C 46.109375 -0.578125 56.421875 7 70.8125 7 L 76.84375 7 C 91.25 7 101.546875 -0.578125 101.546875 -10.5 C 101.546875 -20.421875 91.25 -28.015625 76.84375 -28.015625 Z M 70.8125 -28.015625 "/></g></g></g><g fill="#9b0000" fill-opacity="1"><g transform="translate(1.176506, 811.49991)"><g><path d="M 77.671875 2.546875 C 93.8125 2.546875 108.9375 -2.203125 122.875 -11.890625 L 103.84375 -45.03125 C 95.515625 -38.75 87.015625 -35.6875 78.515625 -35.6875 C 71.203125 -35.6875 65.4375 -37.90625 61.015625 -42.3125 C 56.765625 -46.5625 54.5625 -52.34375 54.5625 -59.65625 C 54.5625 -66.796875 56.765625 -72.5625 61.015625 -76.8125 C 65.4375 -81.0625 71.203125 -83.28125 78.515625 -83.28125 C 87.015625 -83.28125 95.515625 -80.21875 103.84375 -73.921875 L 122.875 -107.078125 C 108.9375 -116.75 93.8125 -121.515625 77.671875 -121.515625 C 56.765625 -121.515625 40.109375 -115.90625 27.359375 -104.515625 C 14.78125 -93.140625 8.5 -78.171875 8.5 -59.484375 C 8.5 -40.78125 14.78125 -25.828125 27.359375 -14.453125 C 40.109375 -3.0625 56.765625 2.546875 77.671875 2.546875 Z M 77.671875 2.546875 "/></g></g></g><g fill="#9b0000" fill-opacity="1"><g transform="translate(117.257169, 811.49991)"><g><path d="M 8.5 0 L 54.390625 0 L 54.390625 -40.625 L 85.3125 -40.625 L 85.3125 0 L 131.203125 0 L 131.203125 -118.96875 L 85.3125 -118.96875 L 85.3125 -76.3125 L 54.390625 -76.3125 L 54.390625 -118.96875 L 8.5 -118.96875 Z M 8.5 0 "/></g></g></g><g fill="#9b0000" fill-opacity="1"><g transform="translate(245.064868, 811.49991)"><g><path d="M 8.5 0 L 115.390625 0 L 115.390625 -34.84375 L 53.203125 -34.84375 L 53.203125 -44.53125 L 101.625 -44.53125 L 101.625 -75.453125 L 53.203125 -75.453125 L 53.203125 -84.125 L 113.875 -84.125 L 113.875 -118.96875 L 8.5 -118.96875 Z M 8.5 0 "/></g></g></g><g fill="#9b0000" fill-opacity="1"><g transform="translate(357.066559, 811.49991)"><g><path d="M 76.140625 2.546875 C 94.328125 2.546875 114.03125 -2.890625 129.671875 -14.109375 L 129.671875 -67.8125 L 75.625 -67.8125 L 75.625 -40.953125 L 88.71875 -40.953125 L 88.71875 -35.515625 C 71.046875 -31.4375 54.390625 -39.09375 54.390625 -59.140625 C 54.390625 -74.78125 64.578125 -83.453125 79.03125 -83.453125 C 88.375 -83.453125 97.546875 -80.21875 106.734375 -73.921875 L 124.234375 -109.453125 C 110.125 -117.4375 95 -121.515625 79.03125 -121.515625 C 39.59375 -121.515625 8.5 -96.703125 8.5 -59.3125 C 8.5 -22.09375 38.40625 2.546875 76.140625 2.546875 Z M 76.140625 2.546875 "/></g></g></g><g fill="#9b0000" fill-opacity="1"><g transform="translate(483.344664, 811.49991)"><g><path d="M 75.296875 2.546875 C 114.03125 2.546875 142.421875 -23.453125 142.421875 -59.65625 C 142.421875 -96.53125 114.03125 -121.515625 75.453125 -121.515625 C 37.5625 -121.515625 8.5 -96.359375 8.5 -59.3125 C 8.5 -22.9375 37.5625 2.546875 75.296875 2.546875 Z M 55.234375 -59.484375 C 55.234375 -72.40625 62.71875 -83.453125 75.453125 -83.453125 C 88.375 -83.453125 95.6875 -72.234375 95.6875 -59.3125 C 95.6875 -46.390625 87.859375 -35.6875 75.453125 -35.6875 C 62.875 -35.6875 55.234375 -46.90625 55.234375 -59.484375 Z M 55.234375 -59.484375 "/></g></g></g><g fill="#9b0000" fill-opacity="1"><g transform="translate(622.369541, 811.49991)"><g><path d="M 68.484375 2.546875 C 104.515625 2.546875 128.65625 -17.5 128.65625 -52.34375 L 128.65625 -118.96875 L 83.28125 -118.96875 L 83.28125 -51.15625 C 83.28125 -40.625 79.03125 -33.65625 68.484375 -33.65625 C 58.46875 -33.65625 54.390625 -41.125 54.390625 -51.15625 L 54.390625 -118.96875 L 8.5 -118.96875 L 8.5 -52.34375 C 8.5 -18.1875 32.125 2.546875 68.484375 2.546875 Z M 68.484375 2.546875 "/></g></g></g><g fill="#9b0000" fill-opacity="1"><g transform="translate(747.627862, 811.49991)"><g><path d="M 11.890625 -29.40625 L 49.28125 -29.40625 L 52.6875 -85.140625 L 52.6875 -135.96875 L 8.5 -135.96875 L 8.5 -84.8125 Z M 28.046875 -24.46875 C 15.46875 -24.46875 6.453125 -17.84375 6.453125 -9.171875 C 6.453125 -0.515625 15.46875 6.125 28.046875 6.125 L 33.3125 6.125 C 45.890625 6.125 54.890625 -0.515625 54.890625 -9.171875 C 54.890625 -17.84375 45.890625 -24.46875 33.3125 -24.46875 Z M 28.046875 -24.46875 "/></g></g></g><g fill="#9b0000" fill-opacity="1"><g transform="translate(1.176506, 962.249896)"><g><path d="M 77.671875 2.546875 C 93.8125 2.546875 108.9375 -2.203125 122.875 -11.890625 L 103.84375 -45.03125 C 95.515625 -38.75 87.015625 -35.6875 78.515625 -35.6875 C 71.203125 -35.6875 65.4375 -37.90625 61.015625 -42.3125 C 56.765625 -46.5625 54.5625 -52.34375 54.5625 -59.65625 C 54.5625 -66.796875 56.765625 -72.5625 61.015625 -76.8125 C 65.4375 -81.0625 71.203125 -83.28125 78.515625 -83.28125 C 87.015625 -83.28125 95.515625 -80.21875 103.84375 -73.921875 L 122.875 -107.078125 C 108.9375 -116.75 93.8125 -121.515625 77.671875 -121.515625 C 56.765625 -121.515625 40.109375 -115.90625 27.359375 -104.515625 C 14.78125 -93.140625 8.5 -78.171875 8.5 -59.484375 C 8.5 -40.78125 14.78125 -25.828125 27.359375 -14.453125 C 40.109375 -3.0625 56.765625 2.546875 77.671875 2.546875 Z M 77.671875 2.546875 "/></g></g></g><g fill="#9b0000" fill-opacity="1"><g transform="translate(117.257169, 962.249896)"><g><path d="M 8.5 0 L 54.390625 0 L 54.390625 -40.625 L 85.3125 -40.625 L 85.3125 0 L 131.203125 0 L 131.203125 -118.96875 L 85.3125 -118.96875 L 85.3125 -76.3125 L 54.390625 -76.3125 L 54.390625 -118.96875 L 8.5 -118.96875 Z M 8.5 0 "/></g></g></g><g fill="#9b0000" fill-opacity="1"><g transform="translate(245.064868, 962.249896)"><g><path d="M 8.5 0 L 115.390625 0 L 115.390625 -34.84375 L 53.203125 -34.84375 L 53.203125 -44.53125 L 101.625 -44.53125 L 101.625 -75.453125 L 53.203125 -75.453125 L 53.203125 -84.125 L 113.875 -84.125 L 113.875 -118.96875 L 8.5 -118.96875 Z M 8.5 0 "/></g></g></g><g fill="#9b0000" fill-opacity="1"><g transform="translate(357.066559, 962.249896)"><g><path d="M 76.140625 2.546875 C 94.328125 2.546875 114.03125 -2.890625 129.671875 -14.109375 L 129.671875 -67.8125 L 75.625 -67.8125 L 75.625 -40.953125 L 88.71875 -40.953125 L 88.71875 -35.515625 C 71.046875 -31.4375 54.390625 -39.09375 54.390625 -59.140625 C 54.390625 -74.78125 64.578125 -83.453125 79.03125 -83.453125 C 88.375 -83.453125 97.546875 -80.21875 106.734375 -73.921875 L 124.234375 -109.453125 C 110.125 -117.4375 95 -121.515625 79.03125 -121.515625 C 39.59375 -121.515625 8.5 -96.703125 8.5 -59.3125 C 8.5 -22.09375 38.40625 2.546875 76.140625 2.546875 Z M 76.140625 2.546875 "/></g></g></g><g fill="#9b0000" fill-opacity="1"><g transform="translate(483.344664, 962.249896)"><g><path d="M 75.296875 2.546875 C 114.03125 2.546875 142.421875 -23.453125 142.421875 -59.65625 C 142.421875 -96.53125 114.03125 -121.515625 75.453125 -121.515625 C 37.5625 -121.515625 8.5 -96.359375 8.5 -59.3125 C 8.5 -22.9375 37.5625 2.546875 75.296875 2.546875 Z M 55.234375 -59.484375 C 55.234375 -72.40625 62.71875 -83.453125 75.453125 -83.453125 C 88.375 -83.453125 95.6875 -72.234375 95.6875 -59.3125 C 95.6875 -46.390625 87.859375 -35.6875 75.453125 -35.6875 C 62.875 -35.6875 55.234375 -46.90625 55.234375 -59.484375 Z M 55.234375 -59.484375 "/></g></g></g><g fill="#9b0000" fill-opacity="1"><g transform="translate(622.369541, 962.249896)"><g><path d="M 68.484375 2.546875 C 104.515625 2.546875 128.65625 -17.5 128.65625 -52.34375 L 128.65625 -118.96875 L 83.28125 -118.96875 L 83.28125 -51.15625 C 83.28125 -40.625 79.03125 -33.65625 68.484375 -33.65625 C 58.46875 -33.65625 54.390625 -41.125 54.390625 -51.15625 L 54.390625 -118.96875 L 8.5 -118.96875 L 8.5 -52.34375 C 8.5 -18.1875 32.125 2.546875 68.484375 2.546875 Z M 68.484375 2.546875 "/></g></g></g><g fill="#9b0000" fill-opacity="1"><g transform="translate(747.627862, 962.249896)"><g><path d="M 11.890625 -29.40625 L 49.28125 -29.40625 L 52.6875 -85.140625 L 52.6875 -135.96875 L 8.5 -135.96875 L 8.5 -84.8125 Z M 28.046875 -24.46875 C 15.46875 -24.46875 6.453125 -17.84375 6.453125 -9.171875 C 6.453125 -0.515625 15.46875 6.125 28.046875 6.125 L 33.3125 6.125 C 45.890625 6.125 54.890625 -0.515625 54.890625 -9.171875 C 54.890625 -17.84375 45.890625 -24.46875 33.3125 -24.46875 Z M 28.046875 -24.46875 "/></g></g></g><g fill="#9b0000" fill-opacity="1"><g transform="translate(1.176506, 1112.999883)"><g><path d="M 77.671875 2.546875 C 93.8125 2.546875 108.9375 -2.203125 122.875 -11.890625 L 103.84375 -45.03125 C 95.515625 -38.75 87.015625 -35.6875 78.515625 -35.6875 C 71.203125 -35.6875 65.4375 -37.90625 61.015625 -42.3125 C 56.765625 -46.5625 54.5625 -52.34375 54.5625 -59.65625 C 54.5625 -66.796875 56.765625 -72.5625 61.015625 -76.8125 C 65.4375 -81.0625 71.203125 -83.28125 78.515625 -83.28125 C 87.015625 -83.28125 95.515625 -80.21875 103.84375 -73.921875 L 122.875 -107.078125 C 108.9375 -116.75 93.8125 -121.515625 77.671875 -121.515625 C 56.765625 -121.515625 40.109375 -115.90625 27.359375 -104.515625 C 14.78125 -93.140625 8.5 -78.171875 8.5 -59.484375 C 8.5 -40.78125 14.78125 -25.828125 27.359375 -14.453125 C 40.109375 -3.0625 56.765625 2.546875 77.671875 2.546875 Z M 77.671875 2.546875 "/></g></g></g><g fill="#9b0000" fill-opacity="1"><g transform="translate(117.257169, 1112.999883)"><g><path d="M 8.5 0 L 54.390625 0 L 54.390625 -40.625 L 85.3125 -40.625 L 85.3125 0 L 131.203125 0 L 131.203125 -118.96875 L 85.3125 -118.96875 L 85.3125 -76.3125 L 54.390625 -76.3125 L 54.390625 -118.96875 L 8.5 -118.96875 Z M 8.5 0 "/></g></g></g><g fill="#9b0000" fill-opacity="1"><g transform="translate(245.064868, 1112.999883)"><g><path d="M 8.5 0 L 115.390625 0 L 115.390625 -34.84375 L 53.203125 -34.84375 L 53.203125 -44.53125 L 101.625 -44.53125 L 101.625 -75.453125 L 53.203125 -75.453125 L 53.203125 -84.125 L 113.875 -84.125 L 113.875 -118.96875 L 8.5 -118.96875 Z M 8.5 0 "/></g></g></g><g fill="#9b0000" fill-opacity="1"><g transform="translate(357.066559, 1112.999883)"><g><path d="M 76.140625 2.546875 C 94.328125 2.546875 114.03125 -2.890625 129.671875 -14.109375 L 129.671875 -67.8125 L 75.625 -67.8125 L 75.625 -40.953125 L 88.71875 -40.953125 L 88.71875 -35.515625 C 71.046875 -31.4375 54.390625 -39.09375 54.390625 -59.140625 C 54.390625 -74.78125 64.578125 -83.453125 79.03125 -83.453125 C 88.375 -83.453125 97.546875 -80.21875 106.734375 -73.921875 L 124.234375 -109.453125 C 110.125 -117.4375 95 -121.515625 79.03125 -121.515625 C 39.59375 -121.515625 8.5 -96.703125 8.5 -59.3125 C 8.5 -22.09375 38.40625 2.546875 76.140625 2.546875 Z M 76.140625 2.546875 "/></g></g></g><g fill="#9b0000" fill-opacity="1"><g transform="translate(483.344664, 1112.999883)"><g><path d="M 75.296875 2.546875 C 114.03125 2.546875 142.421875 -23.453125 142.421875 -59.65625 C 142.421875 -96.53125 114.03125 -121.515625 75.453125 -121.515625 C 37.5625 -121.515625 8.5 -96.359375 8.5 -59.3125 C 8.5 -22.9375 37.5625 2.546875 75.296875 2.546875 Z M 55.234375 -59.484375 C 55.234375 -72.40625 62.71875 -83.453125 75.453125 -83.453125 C 88.375 -83.453125 95.6875 -72.234375 95.6875 -59.3125 C 95.6875 -46.390625 87.859375 -35.6875 75.453125 -35.6875 C 62.875 -35.6875 55.234375 -46.90625 55.234375 -59.484375 Z M 55.234375 -59.484375 "/></g></g></g><g fill="#9b0000" fill-opacity="1"><g transform="translate(622.369541, 1112.999883)"><g><path d="M 68.484375 2.546875 C 104.515625 2.546875 128.65625 -17.5 128.65625 -52.34375 L 128.65625 -118.96875 L 83.28125 -118.96875 L 83.28125 -51.15625 C 83.28125 -40.625 79.03125 -33.65625 68.484375 -33.65625 C 58.46875 -33.65625 54.390625 -41.125 54.390625 -51.15625 L 54.390625 -118.96875 L 8.5 -118.96875 L 8.5 -52.34375 C 8.5 -18.1875 32.125 2.546875 68.484375 2.546875 Z M 68.484375 2.546875 "/></g></g></g><g fill="#9b0000" fill-opacity="1"><g transform="translate(747.627862, 1112.999883)"><g><path d="M 11.890625 -29.40625 L 49.28125 -29.40625 L 52.6875 -85.140625 L 52.6875 -135.96875 L 8.5 -135.96875 L 8.5 -84.8125 Z M 28.046875 -24.46875 C 15.46875 -24.46875 6.453125 -17.84375 6.453125 -9.171875 C 6.453125 -0.515625 15.46875 6.125 28.046875 6.125 L 33.3125 6.125 C 45.890625 6.125 54.890625 -0.515625 54.890625 -9.171875 C 54.890625 -17.84375 45.890625 -24.46875 33.3125 -24.46875 Z M 28.046875 -24.46875 "/></g></g></g><g fill="#9b0000" fill-opacity="1"><g transform="translate(1.176506, 1263.74987)"><g><path d="M 77.671875 2.546875 C 93.8125 2.546875 108.9375 -2.203125 122.875 -11.890625 L 103.84375 -45.03125 C 95.515625 -38.75 87.015625 -35.6875 78.515625 -35.6875 C 71.203125 -35.6875 65.4375 -37.90625 61.015625 -42.3125 C 56.765625 -46.5625 54.5625 -52.34375 54.5625 -59.65625 C 54.5625 -66.796875 56.765625 -72.5625 61.015625 -76.8125 C 65.4375 -81.0625 71.203125 -83.28125 78.515625 -83.28125 C 87.015625 -83.28125 95.515625 -80.21875 103.84375 -73.921875 L 122.875 -107.078125 C 108.9375 -116.75 93.8125 -121.515625 77.671875 -121.515625 C 56.765625 -121.515625 40.109375 -115.90625 27.359375 -104.515625 C 14.78125 -93.140625 8.5 -78.171875 8.5 -59.484375 C 8.5 -40.78125 14.78125 -25.828125 27.359375 -14.453125 C 40.109375 -3.0625 56.765625 2.546875 77.671875 2.546875 Z M 77.671875 2.546875 "/></g></g></g><g fill="#9b0000" fill-opacity="1"><g transform="translate(117.257169, 1263.74987)"><g><path d="M 8.5 0 L 54.390625 0 L 54.390625 -40.625 L 85.3125 -40.625 L 85.3125 0 L 131.203125 0 L 131.203125 -118.96875 L 85.3125 -118.96875 L 85.3125 -76.3125 L 54.390625 -76.3125 L 54.390625 -118.96875 L 8.5 -118.96875 Z M 8.5 0 "/></g></g></g><g fill="#9b0000" fill-opacity="1"><g transform="translate(245.064868, 1263.74987)"><g><path d="M 8.5 0 L 115.390625 0 L 115.390625 -34.84375 L 53.203125 -34.84375 L 53.203125 -44.53125 L 101.625 -44.53125 L 101.625 -75.453125 L 53.203125 -75.453125 L 53.203125 -84.125 L 113.875 -84.125 L 113.875 -118.96875 L 8.5 -118.96875 Z M 8.5 0 "/></g></g></g><g fill="#9b0000" fill-opacity="1"><g transform="translate(357.066559, 1263.74987)"><g><path d="M 76.140625 2.546875 C 94.328125 2.546875 114.03125 -2.890625 129.671875 -14.109375 L 129.671875 -67.8125 L 75.625 -67.8125 L 75.625 -40.953125 L 88.71875 -40.953125 L 88.71875 -35.515625 C 71.046875 -31.4375 54.390625 -39.09375 54.390625 -59.140625 C 54.390625 -74.78125 64.578125 -83.453125 79.03125 -83.453125 C 88.375 -83.453125 97.546875 -80.21875 106.734375 -73.921875 L 124.234375 -109.453125 C 110.125 -117.4375 95 -121.515625 79.03125 -121.515625 C 39.59375 -121.515625 8.5 -96.703125 8.5 -59.3125 C 8.5 -22.09375 38.40625 2.546875 76.140625 2.546875 Z M 76.140625 2.546875 "/></g></g></g><g fill="#9b0000" fill-opacity="1"><g transform="translate(483.344664, 1263.74987)"><g><path d="M 75.296875 2.546875 C 114.03125 2.546875 142.421875 -23.453125 142.421875 -59.65625 C 142.421875 -96.53125 114.03125 -121.515625 75.453125 -121.515625 C 37.5625 -121.515625 8.5 -96.359375 8.5 -59.3125 C 8.5 -22.9375 37.5625 2.546875 75.296875 2.546875 Z M 55.234375 -59.484375 C 55.234375 -72.40625 62.71875 -83.453125 75.453125 -83.453125 C 88.375 -83.453125 95.6875 -72.234375 95.6875 -59.3125 C 95.6875 -46.390625 87.859375 -35.6875 75.453125 -35.6875 C 62.875 -35.6875 55.234375 -46.90625 55.234375 -59.484375 Z M 55.234375 -59.484375 "/></g></g></g><g fill="#9b0000" fill-opacity="1"><g transform="translate(622.369541, 1263.74987)"><g><path d="M 68.484375 2.546875 C 104.515625 2.546875 128.65625 -17.5 128.65625 -52.34375 L 128.65625 -118.96875 L 83.28125 -118.96875 L 83.28125 -51.15625 C 83.28125 -40.625 79.03125 -33.65625 68.484375 -33.65625 C 58.46875 -33.65625 54.390625 -41.125 54.390625 -51.15625 L 54.390625 -118.96875 L 8.5 -118.96875 L 8.5 -52.34375 C 8.5 -18.1875 32.125 2.546875 68.484375 2.546875 Z M 68.484375 2.546875 "/></g></g></g><g fill="#9b0000" fill-opacity="1"><g transform="translate(747.627862, 1263.74987)"><g><path d="M 11.890625 -29.40625 L 49.28125 -29.40625 L 52.6875 -85.140625 L 52.6875 -135.96875 L 8.5 -135.96875 L 8.5 -84.8125 Z M 28.046875 -24.46875 C 15.46875 -24.46875 6.453125 -17.84375 6.453125 -9.171875 C 6.453125 -0.515625 15.46875 6.125 28.046875 6.125 L 33.3125 6.125 C 45.890625 6.125 54.890625 -0.515625 54.890625 -9.171875 C 54.890625 -17.84375 45.890625 -24.46875 33.3125 -24.46875 Z M 28.046875 -24.46875 "/></g></g></g><g fill="#9b0000" fill-opacity="1"><g transform="translate(1.176506, 1414.499857)"><g><path d="M 77.671875 2.546875 C 93.8125 2.546875 108.9375 -2.203125 122.875 -11.890625 L 103.84375 -45.03125 C 95.515625 -38.75 87.015625 -35.6875 78.515625 -35.6875 C 71.203125 -35.6875 65.4375 -37.90625 61.015625 -42.3125 C 56.765625 -46.5625 54.5625 -52.34375 54.5625 -59.65625 C 54.5625 -66.796875 56.765625 -72.5625 61.015625 -76.8125 C 65.4375 -81.0625 71.203125 -83.28125 78.515625 -83.28125 C 87.015625 -83.28125 95.515625 -80.21875 103.84375 -73.921875 L 122.875 -107.078125 C 108.9375 -116.75 93.8125 -121.515625 77.671875 -121.515625 C 56.765625 -121.515625 40.109375 -115.90625 27.359375 -104.515625 C 14.78125 -93.140625 8.5 -78.171875 8.5 -59.484375 C 8.5 -40.78125 14.78125 -25.828125 27.359375 -14.453125 C 40.109375 -3.0625 56.765625 2.546875 77.671875 2.546875 Z M 77.671875 2.546875 "/></g></g></g><g fill="#9b0000" fill-opacity="1"><g transform="translate(117.257169, 1414.499857)"><g><path d="M 8.5 0 L 54.390625 0 L 54.390625 -40.625 L 85.3125 -40.625 L 85.3125 0 L 131.203125 0 L 131.203125 -118.96875 L 85.3125 -118.96875 L 85.3125 -76.3125 L 54.390625 -76.3125 L 54.390625 -118.96875 L 8.5 -118.96875 Z M 8.5 0 "/></g></g></g><g fill="#9b0000" fill-opacity="1"><g transform="translate(245.064868, 1414.499857)"><g><path d="M 8.5 0 L 115.390625 0 L 115.390625 -34.84375 L 53.203125 -34.84375 L 53.203125 -44.53125 L 101.625 -44.53125 L 101.625 -75.453125 L 53.203125 -75.453125 L 53.203125 -84.125 L 113.875 -84.125 L 113.875 -118.96875 L 8.5 -118.96875 Z M 8.5 0 "/></g></g></g><g fill="#9b0000" fill-opacity="1"><g transform="translate(357.066559, 1414.499857)"><g><path d="M 76.140625 2.546875 C 94.328125 2.546875 114.03125 -2.890625 129.671875 -14.109375 L 129.671875 -67.8125 L 75.625 -67.8125 L 75.625 -40.953125 L 88.71875 -40.953125 L 88.71875 -35.515625 C 71.046875 -31.4375 54.390625 -39.09375 54.390625 -59.140625 C 54.390625 -74.78125 64.578125 -83.453125 79.03125 -83.453125 C 88.375 -83.453125 97.546875 -80.21875 106.734375 -73.921875 L 124.234375 -109.453125 C 110.125 -117.4375 95 -121.515625 79.03125 -121.515625 C 39.59375 -121.515625 8.5 -96.703125 8.5 -59.3125 C 8.5 -22.09375 38.40625 2.546875 76.140625 2.546875 Z M 76.140625 2.546875 "/></g></g></g><g fill="#9b0000" fill-opacity="1"><g transform="translate(483.344664, 1414.499857)"><g><path d="M 75.296875 2.546875 C 114.03125 2.546875 142.421875 -23.453125 142.421875 -59.65625 C 142.421875 -96.53125 114.03125 -121.515625 75.453125 -121.515625 C 37.5625 -121.515625 8.5 -96.359375 8.5 -59.3125 C 8.5 -22.9375 37.5625 2.546875 75.296875 2.546875 Z M 55.234375 -59.484375 C 55.234375 -72.40625 62.71875 -83.453125 75.453125 -83.453125 C 88.375 -83.453125 95.6875 -72.234375 95.6875 -59.3125 C 95.6875 -46.390625 87.859375 -35.6875 75.453125 -35.6875 C 62.875 -35.6875 55.234375 -46.90625 55.234375 -59.484375 Z M 55.234375 -59.484375 "/></g></g></g><g fill="#9b0000" fill-opacity="1"><g transform="translate(622.369541, 1414.499857)"><g><path d="M 68.484375 2.546875 C 104.515625 2.546875 128.65625 -17.5 128.65625 -52.34375 L 128.65625 -118.96875 L 83.28125 -118.96875 L 83.28125 -51.15625 C 83.28125 -40.625 79.03125 -33.65625 68.484375 -33.65625 C 58.46875 -33.65625 54.390625 -41.125 54.390625 -51.15625 L 54.390625 -118.96875 L 8.5 -118.96875 L 8.5 -52.34375 C 8.5 -18.1875 32.125 2.546875 68.484375 2.546875 Z M 68.484375 2.546875 "/></g></g></g><g fill="#9b0000" fill-opacity="1"><g transform="translate(747.627862, 1414.499857)"><g><path d="M 11.890625 -29.40625 L 49.28125 -29.40625 L 52.6875 -85.140625 L 52.6875 -135.96875 L 8.5 -135.96875 L 8.5 -84.8125 Z M 28.046875 -24.46875 C 15.46875 -24.46875 6.453125 -17.84375 6.453125 -9.171875 C 6.453125 -0.515625 15.46875 6.125 28.046875 6.125 L 33.3125 6.125 C 45.890625 6.125 54.890625 -0.515625 54.890625 -9.171875 C 54.890625 -17.84375 45.890625 -24.46875 33.3125 -24.46875 Z M 28.046875 -24.46875 "/></g></g></g><g fill="#9b0000" fill-opacity="1"><g transform="translate(747.627853, 1565.249844)"><g><path d="M 11.890625 -29.40625 L 49.28125 -29.40625 L 52.6875 -85.140625 L 52.6875 -135.96875 L 8.5 -135.96875 L 8.5 -84.8125 Z M 28.046875 -24.46875 C 15.46875 -24.46875 6.453125 -17.84375 6.453125 -9.171875 C 6.453125 -0.515625 15.46875 6.125 28.046875 6.125 L 33.3125 6.125 C 45.890625 6.125 54.890625 -0.515625 54.890625 -9.171875 C 54.890625 -17.84375 45.890625 -24.46875 33.3125 -24.46875 Z M 28.046875 -24.46875 "/></g></g></g></svg>